{"title":"Rise.Of.The.Guardians.2012 (Pet Legendi SR.Sinhro).avi","uid":11029282,"size":1776807526,"categoryP":"video","categoryS":"movies","magnet":"?xt=urn:btih:4c84bb499f7f2a543df8aa50ffd8588c1a210054&amp;dn=Rise.Of.The.Guardians.2012+%28Pet+Legendi+SR.Sinhro%29.avi&amp;tr=udp%3A%2F%2Ftracker.openbittorrent.com%3A80&amp;tr=udp%3A%2F%2Fopen.demonii.com%3A1337&amp;tr=udp%3A%2F%2Ftracker.coppersurfer.tk%3A6969&amp;tr=udp%3A%2F%2Fexodus.desync.com%3A6969","seeders":0,"leechers":2,"uploader":"stzar","files":1,"time":1410699670,"description":"General\nFormat                         : AVI\nFormat/Info                    : Audio Video Interleave\nFormat profile                 : OpenDML\nFile size                      : 1.65 GiB\nDuration                       : 1h 33mn\nOverall bit rate mode          : Variable\nOverall bit rate               : 2 542 Kbps\nWriting application            : Lavf51.12.1\n\nVideo\nFormat                         : AVC\nFormat/Info                    : Advanced Video Codec\nFormat profile                 : &lt;a class=&quot;__cf_email__&quot; href=&quot;/cdn-cgi/l/email-protection&quot; data-cfemail=&quot;f0b29183959c999e95b0bcc3dec1&quot;&gt;[email&amp;#160;protected]&lt;/a&gt;&lt;script cf-hash='f9e31' type=&quot;text/javascript&quot;&gt;\n/* &lt;![CDATA[ */!function(){try{var t=&quot;currentScript&quot;in document?document.currentScript:function(){for(var t=document.getElementsByTagName(&quot;script&quot;),e=t.length;e--;)if(t[e].getAttribute(&quot;cf-hash&quot;))return t[e]}();if(t&amp;&amp;t.previousSibling){var e,r,n,i,c=t.previousSibling,a=c.getAttribute(&quot;data-cfemail&quot;);if(a){for(e=&quot;&quot;,r=parseInt(a.substr(0,2),16),n=2;a.length-n;n+=2)i=parseInt(a.substr(n,2),16)^r,e+=String.fromCharCode(i);e=document.createTextNode(e),c.parentNode.replaceChild(e,c)}}}catch(u){}}();/* ]]&gt; */&lt;/script&gt;\nCodec ID                       : H264\nDuration                       : 1h 33mn\nBit rate mode                  : Variable\nBit rate                       : 2 401 Kbps\nMaximum bit rate               : 3 600 Kbps\nWidth                          : 1 024 pixels\nHeight                         : 576 pixels\nDisplay aspect ratio           : 16:9\nFrame rate                     : 23.976 fps\nOriginal frame rate            : 24.000 fps\nColor space                    : YUV\nChroma subsampling             : 4:2:0\nBit depth                      : 8 bits\nScan type                      : Progressive\nBits/(Pixel*Frame)             : 0.170\nStream size                    : 1.56 GiB (94%)\n\nAudio\nID                             : 1\nFormat                         : MPEG Audio\nFormat version                 : Version 1\nFormat profile                 : Layer 3\nMode                           : Joint stereo\nMode extension                 : MS Stereo\nCodec ID/Hint                  : MP3\nDuration                       : 1h 33mn\nBit rate mode                  : Constant\nBit rate                       : 128 Kbps\nChannel(s)                     : 2 channels\nSampling rate                  : 44.1 KHz\nCompression mode               : Lossy\nStream size                    : 85.3 MiB (5%)\nInterleave, duration           : 26 ms (0.63 video frame)\nWriting library                : LAME3.97\n\n","torrent":{"xt":"urn:btih:4c84bb499f7f2a543df8aa50ffd8588c1a210054","amp;dn":"Rise.Of.The.Guardians.2012+%28Pet+Legendi+SR.Sinhro%29.avi","amp;tr":["udp%3A%2F%2Ftracker.openbittorrent.com%3A80","udp%3A%2F%2Fopen.demonii.com%3A1337","udp%3A%2F%2Ftracker.coppersurfer.tk%3A6969","udp%3A%2F%2Fexodus.desync.com%3A6969"],"infoHash":"4c84bb499f7f2a543df8aa50ffd8588c1a210054","infoHashBuffer":{"type":"Buffer","data":[76,132,187,73,159,127,42,84,61,248,170,80,255,216,88,140,26,33,0,84]},"announce":[],"urlList":[]}}